<?xml version="1.0" encoding="UTF-8" standalone="no"?>
<!-- Created with Inkscape (http://www.inkscape.org/) -->

<svg
   width="256"
   height="256"
   viewBox="0 0 67.733325 67.733325"
   version="1.1"
   id="svg5"
   inkscape:version="1.2.2 (b0a8486541, 2022-12-01)"
   sodipodi:docname="chestnut.svg"
   xmlns:inkscape="http://www.inkscape.org/namespaces/inkscape"
   xmlns:sodipodi="http://sodipodi.sourceforge.net/DTD/sodipodi-0.dtd"
   xmlns:xlink="http://www.w3.org/1999/xlink"
   xmlns="http://www.w3.org/2000/svg"
   xmlns:svg="http://www.w3.org/2000/svg">
  <sodipodi:namedview
     id="namedview7"
     pagecolor="#505050"
     bordercolor="#ffffff"
     borderopacity="1"
     inkscape:showpageshadow="0"
     inkscape:pageopacity="0"
     inkscape:pagecheckerboard="1"
     inkscape:deskcolor="#505050"
     inkscape:document-units="px"
     showgrid="false"
     inkscape:zoom="1.4915534"
     inkscape:cx="-87.492679"
     inkscape:cy="176.99668"
     inkscape:window-width="1442"
     inkscape:window-height="749"
     inkscape:window-x="211"
     inkscape:window-y="138"
     inkscape:window-maximized="0"
     inkscape:current-layer="layer1" />
  <defs
     id="defs2">
    <clipPath
       clipPathUnits="userSpaceOnUse"
       id="clipPath237794">
      <use
         x="0"
         y="0"
         xlink:href="#g237790"
         id="use237796" />
    </clipPath>
    <clipPath
       clipPathUnits="userSpaceOnUse"
       id="clipPath241853">
      <path
         style="fill:#5a311f;fill-opacity:1;stroke-width:1.09726"
         d="m 12.727298,23.026198 c 0,0 10.823333,-11.701542 25.098933,-10.175255 14.769307,1.579075 20.527018,18.824229 15.395256,29.508248 C 48.089735,53.043208 35.773525,58.232596 25.136802,52.941454 14.500082,47.650325 12.727298,23.026198 12.727298,23.026198 Z"
         id="path241855"
         sodipodi:nodetypes="csssc" />
    </clipPath>
    <clipPath
       clipPathUnits="userSpaceOnUse"
       id="clipPath241857">
      <path
         style="fill:#5a311f;fill-opacity:1;stroke-width:1.09726"
         d="m 12.727298,23.026198 c 0,0 10.823333,-11.701542 25.098933,-10.175255 14.769307,1.579075 20.527018,18.824229 15.395256,29.508248 C 48.089735,53.043208 35.773525,58.232596 25.136802,52.941454 14.500082,47.650325 12.727298,23.026198 12.727298,23.026198 Z"
         id="path241859"
         sodipodi:nodetypes="csssc" />
    </clipPath>
    <clipPath
       clipPathUnits="userSpaceOnUse"
       id="clipPath241861">
      <path
         style="fill:#5a311f;fill-opacity:1;stroke-width:1.09726"
         d="m 12.727298,23.026198 c 0,0 10.823333,-11.701542 25.098933,-10.175255 14.769307,1.579075 20.527018,18.824229 15.395256,29.508248 C 48.089735,53.043208 35.773525,58.232596 25.136802,52.941454 14.500082,47.650325 12.727298,23.026198 12.727298,23.026198 Z"
         id="path241863"
         sodipodi:nodetypes="csssc" />
    </clipPath>
    <clipPath
       clipPathUnits="userSpaceOnUse"
       id="clipPath241865">
      <path
         style="fill:#5a311f;fill-opacity:1;stroke-width:1.09726"
         d="m 12.727298,23.026198 c 0,0 10.823333,-11.701542 25.098933,-10.175255 14.769307,1.579075 20.527018,18.824229 15.395256,29.508248 C 48.089735,53.043208 35.773525,58.232596 25.136802,52.941454 14.500082,47.650325 12.727298,23.026198 12.727298,23.026198 Z"
         id="path241867"
         sodipodi:nodetypes="csssc" />
    </clipPath>
    <clipPath
       clipPathUnits="userSpaceOnUse"
       id="clipPath241869">
      <path
         style="fill:#5a311f;fill-opacity:1;stroke-width:1.09726"
         d="m 12.727298,23.026198 c 0,0 10.823333,-11.701542 25.098933,-10.175255 14.769307,1.579075 20.527018,18.824229 15.395256,29.508248 C 48.089735,53.043208 35.773525,58.232596 25.136802,52.941454 14.500082,47.650325 12.727298,23.026198 12.727298,23.026198 Z"
         id="path241871"
         sodipodi:nodetypes="csssc" />
    </clipPath>
  </defs>
  <g
     inkscape:label="Layer 1"
     inkscape:groupmode="layer"
     id="layer1">
    <g
       id="g7007">
      <rect
         style="fill:#3e2319;fill-opacity:1;stroke-width:0.343755"
         id="rect241873"
         width="27.516661"
         height="27.516659"
         x="6.349998"
         y="6.3500047" />
      <rect
         style="fill:#3e2319;fill-opacity:1;stroke-width:0.343755"
         id="rect241873-0"
         width="27.516661"
         height="27.516659"
         x="33.866661"
         y="33.866661" />
      <rect
         style="fill:#dabdb1;fill-opacity:1;stroke-width:0.343755"
         id="rect241873-6"
         width="27.516659"
         height="27.516661"
         x="-61.383324"
         y="6.349998"
         transform="rotate(-90)" />
      <rect
         style="fill:#dabdb1;fill-opacity:1;stroke-width:0.343755"
         id="rect241873-0-0"
         width="27.516659"
         height="27.516661"
         x="-33.866657"
         y="33.866661"
         transform="rotate(-90)" />
    </g>
    <g
       id="g237792"
       clip-path="url(#clipPath237794)"
       transform="translate(2.6602339)"
       style="fill:#5a311f;fill-opacity:1">
      <g
         inkscape:label="Clip"
         id="g237790"
         style="fill:#5a311f;fill-opacity:1" />
    </g>
    <rect
       style="fill:#c08c79;fill-opacity:1;stroke-width:0.197603"
       id="rect99289"
       width="13.229165"
       height="13.229165"
       x="95.21299"
       y="-46.302074" />
    <rect
       style="fill:#dabdb1;fill-opacity:1;stroke-width:0.197603"
       id="rect99289-3"
       width="13.229165"
       height="13.229165"
       x="95.212975"
       y="46.302078" />
    <rect
       style="fill:#623727;fill-opacity:1;stroke-width:0.197603"
       id="rect99289-3-6"
       width="13.229165"
       height="13.229165"
       x="101.82756"
       y="52.91666" />
    <rect
       style="fill:#381d22;fill-opacity:1;stroke-width:0.300219"
       id="rect48282"
       width="13.229165"
       height="13.229165"
       x="95.21299"
       y="-1.0299683e-06" />
    <rect
       style="fill:#7c5855;fill-opacity:1;stroke-width:0.577861"
       id="rect89028"
       width="13.229165"
       height="13.229165"
       x="101.82757"
       y="6.614583" />
    <rect
       style="fill:#8e786a;fill-opacity:1;stroke-width:0.354721"
       id="rect78795"
       width="13.229165"
       height="13.229165"
       x="108.44215"
       y="13.229165" />
    <rect
       style="fill:#bd754f;fill-opacity:1;stroke-width:0.279284"
       id="rect140417"
       width="13.229165"
       height="13.229165"
       x="101.82756"
       y="-39.687496" />
    <rect
       style="fill:#a36b6c;fill-opacity:1;stroke-width:0.658343"
       id="rect205356"
       width="13.229165"
       height="13.229165"
       x="108.44215"
       y="19.843748"
       transform="scale(1,-1)" />
    <rect
       style="fill:#9e5f57;fill-opacity:1;stroke-width:0.378508"
       id="rect19057"
       width="13.229165"
       height="13.229165"
       x="115.05673"
       y="-26.458332" />
    <rect
       style="fill:#663b35;fill-opacity:1;stroke-width:0.336826"
       id="rect197814"
       width="13.229165"
       height="13.229165"
       x="121.67131"
       y="-19.843746" />
    <rect
       style="fill:#5a311f;fill-opacity:1;stroke-width:0.299364"
       id="rect67335"
       width="13.229165"
       height="13.229165"
       x="128.28589"
       y="-13.229165" />
    <g
       id="g6587"
       transform="rotate(10,32.631901,33.965924)">
      <path
         style="fill:#5a311f;fill-opacity:1;stroke-width:1.09726"
         d="m 12.699998,23.012562 c 0,0 10.823332,-11.701541 25.098928,-10.175255 14.769317,1.579075 20.527018,18.824232 15.395263,29.508252 C 48.06243,53.029575 35.74623,58.218966 25.109502,52.927823 14.472782,47.636693 12.699998,23.012562 12.699998,23.012562 Z"
         id="path89314-6-5-2"
         sodipodi:nodetypes="csssc" />
      <ellipse
         style="fill:#663b35;fill-opacity:1;stroke-width:1.09726"
         id="path238201"
         cx="-1.1154864"
         cy="4.7072811"
         rx="37.96542"
         ry="52.824379"
         clip-path="url(#clipPath241869)" />
      <ellipse
         style="fill:#9e5f57;fill-opacity:1;stroke-width:1.02546"
         id="path238199"
         cx="-9.5502663"
         cy="-8.2253046"
         rx="45.446312"
         ry="64.041924"
         clip-path="url(#clipPath241865)" />
      <ellipse
         style="fill:#a36b6c;fill-opacity:1;stroke-width:1.09726"
         id="path238145"
         cx="-13.103775"
         cy="-5.5739193"
         rx="44.137142"
         ry="57.311398"
         clip-path="url(#clipPath241861)" />
      <ellipse
         style="fill:#bd754f;fill-opacity:1;stroke-width:1.11402"
         id="path238091"
         cx="-9.2361488"
         cy="-0.46268666"
         rx="35.630165"
         ry="45.1446"
         clip-path="url(#clipPath241857)" />
      <ellipse
         style="fill:#c08c79;fill-opacity:1;stroke-width:1.67555"
         id="path237798"
         cx="0.030741371"
         cy="10.8488"
         rx="20.96072"
         ry="23.679329"
         clip-path="url(#clipPath241853)" />
    </g>
  </g>
  <g
     inkscape:groupmode="layer"
     id="layer2"
     inkscape:label="Layer 2" />
  <g
     inkscape:groupmode="layer"
     id="layer3"
     inkscape:label="Layer 3" />
</svg>
